<svg width="27" height="27" viewBox="0 0 27 27" fill="none" xmlns="http://www.w3.org/2000/svg">
<path d="M21.2372 3.29063C21.0431 3.4425 19.8281 4.97813 14.0906 12.3272L13.1963 13.4663L13.0444 15.3816C12.9009 17.1703 12.9009 17.3138 13.0359 17.5163C13.3144 17.9466 13.4494 17.9381 15.39 17.2969L17.1788 16.7063L21.2034 11.5509C25.2281 6.39563 25.2281 6.39563 25.2281 5.99063C25.2281 5.71219 25.1775 5.52657 25.0509 5.36625C24.9581 5.24813 24.2916 4.69125 23.5659 4.13438C22.3172 3.16407 22.2413 3.12188 21.8531 3.12188C21.5747 3.12188 21.3891 3.1725 21.2372 3.29063ZM23.1609 5.56875C23.49 5.82188 23.7684 6.03281 23.7853 6.04969C23.8613 6.10032 22.9078 7.23938 22.8319 7.19719C22.5788 7.04532 21.0094 5.78813 21.0094 5.7375C21.0094 5.70375 21.2034 5.42531 21.4397 5.11313L21.8784 4.55625L22.2244 4.83469C22.41 4.98657 22.8403 5.31563 23.1609 5.56875ZM21.0938 7.56C21.6 7.95657 22.0219 8.3025 22.0219 8.32782C22.0219 8.34469 20.8744 9.82969 19.4738 11.6269C18.0647 13.4156 16.875 14.9344 16.8244 15.0019C16.7484 15.1031 16.5628 14.9934 15.795 14.3859C15.2719 13.9725 14.85 13.6181 14.85 13.5928C14.85 13.5253 20.0813 6.83438 20.1234 6.83438C20.1403 6.83438 20.5791 7.16344 21.0938 7.56ZM14.9513 15.4406C15.1706 15.6009 15.3478 15.7613 15.3563 15.795C15.3563 15.8203 15.1284 15.9216 14.85 16.0144L14.3438 16.1916V15.9638C14.3438 15.6094 14.445 15.0947 14.5041 15.12C14.5378 15.1369 14.7403 15.2803 14.9513 15.4406Z" fill="white"/>
<path d="M3.29907 4.43812C2.48064 4.725 1.83095 5.3325 1.44282 6.15094L1.22345 6.62344V15.0187V23.4141L1.45126 23.895C1.76345 24.5616 2.04189 24.9075 2.55657 25.2619C3.40032 25.8441 3.1472 25.8272 11.821 25.8019L19.6172 25.7766L20.0813 25.5572C20.9081 25.1691 21.5241 24.4941 21.8025 23.6756C21.9291 23.3128 21.946 22.7728 21.9375 19.2459V15.2297L21.7266 15.0356C21.4397 14.7909 21.1613 14.7994 20.8659 15.0525L20.6297 15.255L20.5875 19.2966L20.5453 23.3381L20.3091 23.7009C20.1403 23.9456 19.9378 24.1228 19.6341 24.2662L19.1953 24.4687H11.6438C6.37033 24.4687 3.99095 24.4434 3.7547 24.3759C3.31595 24.2494 2.75064 23.6841 2.62407 23.2453C2.55657 23.0091 2.53126 20.5284 2.53126 14.9681V7.03687L2.75064 6.58969C2.89407 6.30281 3.09657 6.06656 3.31595 5.92312L3.66189 5.69531L9.99001 5.65312C13.4747 5.62781 16.3941 5.57719 16.4785 5.535C16.816 5.36625 16.9003 4.75031 16.6219 4.47187C16.4531 4.30312 16.3435 4.30312 10.066 4.30312C4.51407 4.31156 3.6197 4.32844 3.29907 4.43812Z" fill="white"/>
<path d="M5.61939 10.2178C5.30721 10.4625 5.30721 10.9687 5.61939 11.2134C5.83877 11.3822 5.93158 11.3906 9.17158 11.3906H12.496L12.6985 11.1797C12.8335 11.0531 12.9094 10.8759 12.9094 10.7156C12.9094 10.5553 12.8335 10.3781 12.6985 10.2516L12.496 10.0406H9.17158C5.93158 10.0406 5.83877 10.0491 5.61939 10.2178Z" fill="white"/>
<path d="M5.77971 14.7741C5.36627 15.0103 5.26502 15.5587 5.56877 15.8625C5.72908 16.0228 5.84721 16.0312 8.09158 16.0312H10.4541L10.6228 15.8119C10.8591 15.5166 10.8422 15.2466 10.5975 14.9597L10.395 14.7234L8.16752 14.7066C6.64877 14.6897 5.89783 14.715 5.77971 14.7741Z" fill="white"/>
<path d="M5.61096 19.6172C5.31564 19.9041 5.32408 20.3428 5.61939 20.5791C5.83877 20.7562 5.90627 20.7562 11.5088 20.7562C17.491 20.7478 17.3222 20.7647 17.5331 20.3597C17.685 20.0728 17.6513 19.9209 17.3897 19.6509L17.145 19.4062H11.475H5.81346L5.61096 19.6172Z" fill="white"/>
</svg>
